<?xml version="1.0" encoding="UTF-8"?>
<!--
  Site favicon. 3 staggered isometric cubes on a dark squircle, matching
  branding/mark-marjers.svg. Referenced from every page's <link rel="icon">.
-->
<svg xmlns="http://www.w3.org/2000/svg" viewBox="0 0 64 64" width="64" height="64">
  <defs>
    <linearGradient id="fav-mark" x1="0" y1="0" x2="1" y2="1">
      <stop offset="0%"  stop-color="#cdff45"/>
      <stop offset="100%" stop-color="#7cbe1e"/>
    </linearGradient>
  </defs>
  <rect width="64" height="64" rx="13" fill="#14171d"/>
  <g fill="none" stroke="url(#fav-mark)" stroke-width="1.8"
     stroke-linejoin="round" stroke-linecap="round">
    <path d="M14 22 L26 16 L38 22 L26 28 Z"/>
    <path d="M14 22 L14 36 L26 42 L26 28"/>
    <path d="M38 22 L38 36 L26 42"/>
    <path d="M28 30 L40 24 L52 30 L40 36 Z"/>
    <path d="M28 30 L28 44 L40 50 L40 36"/>
    <path d="M52 30 L52 44 L40 50"/>
    <path d="M34 12 L42 8 L50 12 L42 16 Z" fill="url(#fav-mark)" fill-opacity="0.22"/>
    <path d="M34 12 L34 20 L42 24 L42 16"/>
    <path d="M50 12 L50 20 L42 24"/>
  </g>
</svg>
